<?xml version="1.0" encoding="UTF-8" standalone="no"?>
<svg
   xmlns:dc="http://purl.org/dc/elements/1.1/"
   xmlns:cc="http://creativecommons.org/ns#"
   xmlns:rdf="http://www.w3.org/1999/02/22-rdf-syntax-ns#"
   xmlns:svg="http://www.w3.org/2000/svg"
   xmlns="http://www.w3.org/2000/svg"
   xmlns:sodipodi="http://sodipodi.sourceforge.net/DTD/sodipodi-0.dtd"
   xmlns:inkscape="http://www.inkscape.org/namespaces/inkscape"
   sodipodi:docname="logo.svg"
   inkscape:version="1.0 (4035a4fb49, 2020-05-01)"
   id="svg5190"
   version="1.1"
   viewBox="0 0 8.4666665 8.4666669"
   height="32"
   width="32">
  <defs
     id="defs5184" />
  <sodipodi:namedview
     units="px"
     inkscape:window-maximized="1"
     inkscape:window-y="-8"
     inkscape:window-x="1912"
     inkscape:window-height="1137"
     inkscape:window-width="1920"
     showgrid="false"
     inkscape:document-rotation="0"
     inkscape:current-layer="layer5"
     inkscape:document-units="mm"
     inkscape:cy="13.020605"
     inkscape:cx="14.346714"
     inkscape:zoom="22.4"
     inkscape:pageshadow="2"
     inkscape:pageopacity="0.0"
     borderopacity="1.0"
     bordercolor="#666666"
     pagecolor="#ffffff"
     id="base" />
  <metadata
     id="metadata5187">
    <rdf:RDF>
      <cc:Work
         rdf:about="">
        <dc:format>image/svg+xml</dc:format>
        <dc:type
           rdf:resource="http://purl.org/dc/dcmitype/StillImage" />
        <dc:title />
      </cc:Work>
    </rdf:RDF>
  </metadata>
  <g
     id="layer1"
     inkscape:groupmode="layer"
     inkscape:label="Layer 1">
    <path
       transform="scale(0.26458333)"
       id="path5514"
       d=""
       style="fill:#ffffff;fill-opacity:0.991968;fill-rule:evenodd;stroke-width:0.252538" />
    <path
       transform="scale(0.26458333)"
       id="path5516"
       d=""
       style="fill:#ffffff;fill-opacity:0.991968;fill-rule:evenodd;stroke-width:0.252538" />
    <ellipse
       style="fill:#000000;fill-opacity:0.991968;stroke-width:0.0533952"
       id="path1941-0-6-7-5-0-5"
       cx="4.253911"
       cy="4.2589245"
       rx="4.1885962"
       ry="4.1649246" />
    <path
       sodipodi:nodetypes="cssccssscccscccccc"
       id="path1287-0-7-3-3-3-5-7-7"
       style="fill:#ffffff;fill-opacity:1;fill-rule:evenodd;stroke:none;stroke-width:0.164629;stroke-linecap:round;stroke-linejoin:miter;stroke-miterlimit:4;stroke-dasharray:none;stroke-opacity:1"
       d="M 3.9437461,1.3362229 C 3.5334968,1.8451095 3.544849,2.4850789 3.2052641,2.9681271 2.4558164,4.0341911 1.44949,5.0657724 1.7529908,6.2233385 1.9338173,6.9130172 2.4353037,7.5117071 3.4350701,7.3989887 3.5666019,7.3841271 3.7175664,7.3456751 3.8788551,7.2976855 4.4490809,7.1280189 5.1477842,6.8396029 5.5684264,7.0579983 6.0962396,7.3320363 6.7111124,7.7046198 6.7637771,7.2483187 6.8101636,6.8464109 6.4659884,6.6602556 5.9273795,6.356137 5.3887713,6.0520184 3.8516002,6.7023818 3.3011745,6.6381552 2.7389385,6.6123186 2.6949447,6.444613 2.569446,6.2957125 2.5586,6.2706925 2.5999666,6.2300837 2.6345986,6.2745482 2.945184,6.8407685 4.1295392,6.4373248 4.189627,6.4306662 4.27704,6.4209796 5.0045789,6.2079854 5.4918138,6.2138913 6.1317811,4.5117505 6.3197237,2.4368992 5.4431823,1.3891602 5.1847256,1.5778006 5.0534198,1.8714389 5.0534198,1.8714389 4.8257324,1.8100211 4.5242509,1.8319918 4.3950227,1.8977947 4.3129721,1.5731597 3.9437455,1.3362172 3.9437461,1.3362172 Z" />
    <path
       style="fill:none;fill-rule:evenodd;stroke:#000000;stroke-width:0.0339989px;stroke-linecap:butt;stroke-linejoin:miter;stroke-opacity:1"
       d="m 5.4675684,1.3803938 c 0,0 0,0 0,0 z"
       id="path1309-7-7-0-8-2-9-9-2" />
    <path
       style="fill:none;fill-rule:evenodd;stroke:#000000;stroke-width:0.07;stroke-linecap:round;stroke-linejoin:miter;stroke-miterlimit:4;stroke-dasharray:none;stroke-opacity:1"
       d="M 4.00488,5.2319285 C 3.9798421,5.523443 4.2472427,5.5328772 4.220121,6.4339249"
       id="path1329-1-4-8-4-0-8-6-8"
       sodipodi:nodetypes="cc" />
    <path
       style="fill:none;fill-rule:evenodd;stroke:#000000;stroke-width:0.07;stroke-linecap:round;stroke-linejoin:miter;stroke-miterlimit:4;stroke-dasharray:none;stroke-opacity:1"
       d="m 4.855315,5.4598336 c 0.075664,0.2107089 0.067257,0.8259781 0.067257,0.8259781 0,0 0.050441,-0.7501239 0.1429199,-0.8175502"
       id="path1331-5-0-9-9-0-6-6-6"
       sodipodi:nodetypes="ccc" />
    <path
       style="fill:#ffffff;fill-opacity:0;stroke-width:0.0140364"
       d="M 3.1623199,6.5621448 C 3.0001603,6.5284711 2.8604812,6.4571167 2.7752899,6.3644614 L 2.7235317,6.308157 3.2174986,6.298564 c 0.2716819,-0.00527 0.5942603,-0.00959 0.7168401,-0.00959 h 0.2228739 v 0.079161 c 0,0.070188 -0.00346,0.080027 -0.030696,0.086799 -0.419742,0.1046655 -0.7822054,0.1449611 -0.9641961,0.1071675 z"
       id="path3911-4-4-5-3-3-8" />
    <path
       style="fill:#ffffff;fill-opacity:0;stroke-width:0.0140364"
       d="M 3.1623199,6.5621448 C 3.0001603,6.5284711 2.8604812,6.4571167 2.7752899,6.3644614 L 2.7235317,6.308157 3.2174986,6.298564 c 0.2716819,-0.00527 0.5942603,-0.00959 0.7168401,-0.00959 h 0.2228739 v 0.079161 c 0,0.070188 -0.00346,0.080027 -0.030696,0.086799 -0.419742,0.1046655 -0.7822054,0.1449611 -0.9641961,0.1071675 z"
       id="path3913-9-3-9-0-1-9" />
    <path
       style="fill:#ffffff;fill-opacity:0;stroke-width:0.0140364"
       d="M 3.1623199,6.5621448 C 3.0001603,6.5284711 2.8604812,6.4571167 2.7752899,6.3644614 L 2.7235317,6.308157 3.2174986,6.298564 c 0.2716819,-0.00527 0.5942603,-0.00959 0.7168401,-0.00959 h 0.2228739 v 0.079161 c 0,0.070188 -0.00346,0.080027 -0.030696,0.086799 -0.419742,0.1046655 -0.7822054,0.1449611 -0.9641961,0.1071675 z"
       id="path3915-8-8-9-1-5-6" />
    <path
       style="fill:#ffffff;fill-opacity:0;stroke-width:0.0140364"
       d="M 3.1623199,6.5621448 C 3.0001603,6.5284711 2.8604812,6.4571167 2.7752899,6.3644614 L 2.7235317,6.308157 3.2174986,6.298564 c 0.2716819,-0.00527 0.5942603,-0.00959 0.7168401,-0.00959 h 0.2228739 v 0.079161 c 0,0.070188 -0.00346,0.080027 -0.030696,0.086799 -0.419742,0.1046655 -0.7822054,0.1449611 -0.9641961,0.1071675 z"
       id="path3917-9-4-1-7-5-8" />
    <path
       style="fill:#ffffff;fill-opacity:0;stroke-width:0.0140364"
       d="M 6.5515073,7.5788401 C 6.3939355,7.5542056 6.1960663,7.4729711 5.8011583,7.2707823 5.4867612,7.1098069 5.4189405,7.0912958 5.1872364,7.1030721 4.9422646,7.1154882 4.7569939,7.160167 4.0538688,7.3760737 3.6748297,7.4924643 3.5451942,7.5182744 3.2977212,7.526627 3.0492242,7.5350925 2.8792792,7.5125179 2.6827982,7.4450389 2.4391317,7.3614096 2.2645051,7.2452824 2.086845,7.0487334 1.9131825,6.8566071 1.7934371,6.6384881 1.7094081,6.3612238 1.646446,6.1534703 1.6272495,6.0242706 1.6278791,5.812448 1.6287798,5.5077424 1.6990085,5.220993 1.8559979,4.8809735 2.0277488,4.5089788 2.2250299,4.2036581 2.7191405,3.5451362 3.2727716,2.8072835 3.308007,2.7490487 3.4400128,2.3537121 3.4744949,2.2504522 3.5277969,2.0912378 3.5584697,1.9998956 3.6543604,1.7143389 3.7953901,1.4405737 3.9214012,1.295378 l 0.051635,-0.059503 0.095498,0.067875 c 0.1302844,0.092612 0.3025182,0.2791737 0.3672641,0.3978349 0.044218,0.081043 0.058395,0.096713 0.081856,0.090524 0.1046875,-0.027616 0.2871518,-0.038113 0.4171493,-0.023986 0.077475,0.00846 0.1416313,0.013733 0.1425728,0.011664 C 5.1304274,1.665221 5.3102821,1.4492203 5.4317641,1.3541777 l 0.080815,-0.063228 0.08068,0.083715 c 0.2151004,0.223188 0.4261436,0.596616 0.5348912,0.9464444 0.1065137,0.3426477 0.1478196,0.6444786 0.1467643,1.0724299 -0.00182,0.7405955 -0.1785807,1.6012612 -0.5301729,2.5816341 -0.047757,0.1331522 -0.086829,0.2443638 -0.086829,0.2471198 0,0.00282 0.039906,0.0094 0.088685,0.014673 0.1371965,0.014862 0.2349015,0.053577 0.4604143,0.1823459 C 6.6101556,6.6495175 6.8057086,6.8161384 6.8833,6.995542 6.923564,7.088643 6.938459,7.2584244 6.914571,7.3519752 6.8725703,7.5164497 6.7283989,7.6065729 6.5515063,7.578921 Z M 6.7005234,7.4096251 C 6.7601,7.3832693 6.7822916,7.3152635 6.7735437,7.1858361 6.7582837,6.9600286 6.6179686,6.8258285 6.0806858,6.523166 5.8815822,6.4110082 5.8007482,6.390597 5.5547235,6.3903149 5.2605188,6.3899688 5.0390235,6.425343 4.2936387,6.5916064 3.658624,6.7332429 3.594844,6.7437024 3.3659346,6.7435519 3.1365628,6.7433807 3.0399259,6.7223318 2.865995,6.6345545 2.6829913,6.5422058 2.5102556,6.3479838 2.5468146,6.2756701 c 0.018909,-0.03738 0.060701,-0.061234 0.087927,-0.050172 0.011631,0.0047 0.042686,0.040333 0.069027,0.079161 0.1215698,0.1791289 0.3711969,0.2876391 0.6616803,0.2876391 0.1401739,0 0.2991593,-0.023138 0.5926616,-0.086253 0.1118469,-0.024061 0.2054701,-0.043719 0.2080507,-0.043719 0.010847,0 0.00346,-0.2917139 -0.010435,-0.4115847 C 4.1344741,5.8671724 4.0989173,5.7311815 4.0259087,5.5542837 3.97214,5.4239909 3.9623563,5.3859151 3.9609932,5.3016106 c -0.0013,-0.079971 0.00306,-0.1024132 0.02227,-0.1154501 0.043007,-0.029178 0.070694,0.00583 0.07973,0.1007014 0.00522,0.054686 0.0305,0.139379 0.070714,0.2367711 0.1023044,0.2477782 0.1462857,0.4792181 0.1462857,0.7697788 v 0.1423325 l 0.044336,-0.010347 c 0.024385,-0.00583 0.1548455,-0.034295 0.2899081,-0.063453 l 0.2455683,-0.053032 0.00432,-0.1218085 C 4.8698161,6.0273893 4.8433493,5.6565197 4.8180188,5.5399203 4.7951422,5.4346289 4.8064858,5.4038146 4.8654754,5.4110761 c 0.031114,0.00376 0.037687,0.015049 0.055707,0.094606 0.011239,0.049645 0.024077,0.090261 0.028535,0.090261 0.00443,0 0.01581,-0.027616 0.025206,-0.061384 0.018124,-0.065071 0.062338,-0.126361 0.091144,-0.126361 0.00953,0 0.026773,0.014297 0.038333,0.031774 0.01832,0.027692 0.018516,0.0358 0.00156,0.063152 -0.041008,0.066257 -0.09279,0.3672672 -0.1114056,0.6476128 -0.00897,0.1350335 -0.00818,0.141392 0.016594,0.1336226 0.028437,-0.00884 0.3484809,-0.050586 0.4340072,-0.056512 L 5.498448,6.2240875 5.571543,6.021906 C 5.9509782,4.9723063 6.1242948,4.147487 6.1253337,3.3862885 6.1259257,2.9537396 6.0839598,2.65632 5.9757652,2.3262351 5.8882515,2.059214 5.7210899,1.7508157 5.5640591,1.56666 L 5.4963311,1.487235 5.4123981,1.573884 C 5.3325211,1.656338 5.1786264,1.879801 5.160827,1.9391645 c -0.00801,0.026694 -0.011828,0.026939 -0.093298,0.00602 -0.1091891,-0.02803 -0.3998852,-0.030457 -0.5010531,-0.00414 -0.041268,0.010723 -0.097328,0.031341 -0.1245746,0.045826 l -0.04954,0.026337 -0.017201,-0.068005 C 4.3444822,1.823959 4.27766,1.7103866 4.1701451,1.5967501 4.1131714,1.5365325 4.0495974,1.4777446 4.0288748,1.4661187 3.9934592,1.4462531 3.9896678,1.4471184 3.9657265,1.480604 3.8562216,1.633603 3.7612403,1.8512798 3.6319682,2.2454859 3.4415051,2.8262875 3.4380569,2.8324127 2.8882008,3.5668811 2.3385022,4.3011388 2.1750622,4.5501379 1.9990558,4.9214815 1.8375082,5.2623214 1.7575327,5.6156092 1.7752962,5.9099399 c 0.022517,0.373144 0.1767723,0.7631193 0.4026442,1.0179614 0.2849889,0.3215386 0.6291608,0.4572737 1.1178587,0.4408676 0.250436,-0.00847 0.377994,-0.035668 0.8404942,-0.1796181 0.6418008,-0.1997471 0.8291742,-0.2404734 1.1123285,-0.2417696 0.2438009,-0.00115 0.2672579,0.00583 0.60974,0.180634 0.3311454,0.1690081 0.4914201,0.2398037 0.6181042,0.2730334 0.1260221,0.033053 0.1654548,0.034577 0.2240494,0.00865 z"
       id="path3919-6-3-6-4-0-6" />
    <path
       style="fill:#ffffff;fill-opacity:0;stroke-width:0.0140364"
       d="M 3.1623199,6.5621448 C 3.0001603,6.5284711 2.8604812,6.4571167 2.7752899,6.3644614 L 2.7235317,6.308157 3.2174986,6.298564 c 0.2716819,-0.00527 0.5942603,-0.00959 0.7168401,-0.00959 h 0.2228739 v 0.079161 c 0,0.070188 -0.00346,0.080027 -0.030696,0.086799 -0.419742,0.1046655 -0.7822054,0.1449611 -0.9641961,0.1071675 z"
       id="path3921-7-3-5-7-8-9" />
    <path
       style="fill:#ffffff;fill-opacity:0;stroke-width:0.0140364"
       d="M 3.1623199,6.5621448 C 3.0001603,6.5284711 2.8604812,6.4571167 2.7752899,6.3644614 L 2.7235317,6.308157 3.2174986,6.298564 c 0.2716819,-0.00527 0.5942603,-0.00959 0.7168401,-0.00959 h 0.2228739 v 0.079161 c 0,0.070188 -0.00346,0.080027 -0.030696,0.086799 -0.419742,0.1046655 -0.7822054,0.1449611 -0.9641961,0.1071675 z"
       id="path3923-4-1-0-2-4-6" />
    <path
       style="fill:#ffffff;fill-opacity:0;stroke-width:0.0140364"
       d="M 3.1623199,6.5621448 C 3.0001603,6.5284711 2.8604812,6.4571167 2.7752899,6.3644614 L 2.7235317,6.308157 3.2174986,6.298564 c 0.2716819,-0.00527 0.5942603,-0.00959 0.7168401,-0.00959 h 0.2228739 v 0.079161 c 0,0.070188 -0.00346,0.080027 -0.030696,0.086799 -0.419742,0.1046655 -0.7822054,0.1449611 -0.9641961,0.1071675 z"
       id="path3925-4-2-7-0-7-1" />
    <path
       style="fill:#ffffff;fill-opacity:0;stroke-width:0.0140364"
       d="M 3.1623199,6.5621448 C 3.0001603,6.5284711 2.8604812,6.4571167 2.7752899,6.3644614 L 2.7235317,6.308157 3.2174986,6.298564 c 0.2716819,-0.00527 0.5942603,-0.00959 0.7168401,-0.00959 h 0.2228739 v 0.079161 c 0,0.070188 -0.00346,0.080027 -0.030696,0.086799 -0.419742,0.1046655 -0.7822054,0.1449611 -0.9641961,0.1071675 z"
       id="path3927-5-9-0-2-8-0" />
    <path
       style="fill:#ffffff;fill-opacity:0;stroke-width:0.0140364"
       d="M 6.5515073,7.5788401 C 6.3939355,7.5542056 6.1960663,7.4729711 5.8011583,7.2707823 5.4867612,7.1098069 5.4189405,7.0912958 5.1872364,7.1030721 4.9422646,7.1154882 4.7569939,7.160167 4.0538688,7.3760737 3.6748297,7.4924643 3.5451942,7.5182744 3.2977212,7.526627 3.0492242,7.5350925 2.8792792,7.5125179 2.6827982,7.4450389 2.4391317,7.3614096 2.2645051,7.2452824 2.086845,7.0487334 1.9131825,6.8566071 1.7934371,6.6384881 1.7094081,6.3612238 1.646446,6.1534703 1.6272495,6.0242706 1.6278791,5.812448 1.6287798,5.5077424 1.6990085,5.220993 1.8559979,4.8809735 2.0277488,4.5089788 2.2250299,4.2036581 2.7191405,3.5451362 3.2727716,2.8072835 3.308007,2.7490487 3.4400128,2.3537121 3.4744949,2.2504522 3.5277969,2.0912378 3.5584697,1.9998956 3.6543604,1.7143389 3.7953901,1.4405737 3.9214012,1.295378 l 0.051635,-0.059503 0.095498,0.067875 c 0.1302844,0.092612 0.3025182,0.2791737 0.3672641,0.3978349 0.044218,0.081043 0.058395,0.096713 0.081856,0.090524 0.1046875,-0.027616 0.2871518,-0.038113 0.4171493,-0.023986 0.077475,0.00846 0.1416313,0.013733 0.1425728,0.011664 C 5.1304274,1.665221 5.3102821,1.4492203 5.4317641,1.3541777 l 0.080815,-0.063228 0.08068,0.083715 c 0.2151004,0.223188 0.4261436,0.596616 0.5348912,0.9464444 0.1065137,0.3426477 0.1478196,0.6444786 0.1467643,1.0724299 -0.00182,0.7405955 -0.1785807,1.6012612 -0.5301729,2.5816341 -0.047757,0.1331522 -0.086829,0.2443638 -0.086829,0.2471198 0,0.00282 0.039906,0.0094 0.088685,0.014673 0.1371965,0.014862 0.2349015,0.053577 0.4604143,0.1823459 C 6.6101556,6.6495175 6.8057086,6.8161384 6.8833,6.995542 6.923564,7.088643 6.938459,7.2584244 6.914571,7.3519752 6.8725703,7.5164497 6.7283989,7.6065729 6.5515063,7.578921 Z M 6.7005234,7.4096251 C 6.7601,7.3832693 6.7822916,7.3152635 6.7735437,7.1858361 6.7582837,6.9600286 6.6179686,6.8258285 6.0806858,6.523166 5.8815822,6.4110082 5.8007482,6.390597 5.5547235,6.3903149 5.2605188,6.3899688 5.0390235,6.425343 4.2936387,6.5916064 3.658624,6.7332429 3.594844,6.7437024 3.3659346,6.7435519 3.1365628,6.7433807 3.0399259,6.7223318 2.865995,6.6345545 2.6829913,6.5422058 2.5102556,6.3479838 2.5468146,6.2756701 c 0.018909,-0.03738 0.060701,-0.061234 0.087927,-0.050172 0.011631,0.0047 0.042686,0.040333 0.069027,0.079161 0.1215698,0.1791289 0.3711969,0.2876391 0.6616803,0.2876391 0.1401739,0 0.2991593,-0.023138 0.5926616,-0.086253 0.1118469,-0.024061 0.2054701,-0.043719 0.2080507,-0.043719 0.010847,0 0.00346,-0.2917139 -0.010435,-0.4115847 C 4.1344741,5.8671724 4.0989173,5.7311815 4.0259087,5.5542837 3.97214,5.4239909 3.9623563,5.3859151 3.9609932,5.3016106 c -0.0013,-0.079971 0.00306,-0.1024132 0.02227,-0.1154501 0.043007,-0.029178 0.070694,0.00583 0.07973,0.1007014 0.00522,0.054686 0.0305,0.139379 0.070714,0.2367711 0.1023044,0.2477782 0.1462857,0.4792181 0.1462857,0.7697788 v 0.1423325 l 0.044336,-0.010347 c 0.024385,-0.00583 0.1548455,-0.034295 0.2899081,-0.063453 l 0.2455683,-0.053032 0.00432,-0.1218085 C 4.8698161,6.0273893 4.8433493,5.6565197 4.8180188,5.5399203 4.7951422,5.4346289 4.8064858,5.4038146 4.8654754,5.4110761 c 0.031114,0.00376 0.037687,0.015049 0.055707,0.094606 0.011239,0.049645 0.024077,0.090261 0.028535,0.090261 0.00443,0 0.01581,-0.027616 0.025206,-0.061384 0.018124,-0.065071 0.062338,-0.126361 0.091144,-0.126361 0.00953,0 0.026773,0.014297 0.038333,0.031774 0.01832,0.027692 0.018516,0.0358 0.00156,0.063152 -0.041008,0.066257 -0.09279,0.3672672 -0.1114056,0.6476128 -0.00897,0.1350335 -0.00818,0.141392 0.016594,0.1336226 0.028437,-0.00884 0.3484809,-0.050586 0.4340072,-0.056512 L 5.498448,6.2240875 5.571543,6.021906 C 5.9509782,4.9723063 6.1242948,4.147487 6.1253337,3.3862885 6.1259257,2.9537396 6.0839598,2.65632 5.9757652,2.3262351 5.8882515,2.059214 5.7210899,1.7508157 5.5640591,1.56666 L 5.4963311,1.487235 5.4123981,1.573884 C 5.3325211,1.656338 5.1786264,1.879801 5.160827,1.9391645 c -0.00801,0.026694 -0.011828,0.026939 -0.093298,0.00602 -0.1091891,-0.02803 -0.3998852,-0.030457 -0.5010531,-0.00414 -0.041268,0.010723 -0.097328,0.031341 -0.1245746,0.045826 l -0.04954,0.026337 -0.017201,-0.068005 C 4.3444822,1.823959 4.27766,1.7103866 4.1701451,1.5967501 4.1131714,1.5365325 4.0495974,1.4777446 4.0288748,1.4661187 3.9934592,1.4462531 3.9896678,1.4471184 3.9657265,1.480604 3.8562216,1.633603 3.7612403,1.8512798 3.6319682,2.2454859 3.4415051,2.8262875 3.4380569,2.8324127 2.8882008,3.5668811 2.3385022,4.3011388 2.1750622,4.5501379 1.9990558,4.9214815 1.8375082,5.2623214 1.7575327,5.6156092 1.7752962,5.9099399 c 0.022517,0.373144 0.1767723,0.7631193 0.4026442,1.0179614 0.2849889,0.3215386 0.6291608,0.4572737 1.1178587,0.4408676 0.250436,-0.00847 0.377994,-0.035668 0.8404942,-0.1796181 0.6418008,-0.1997471 0.8291742,-0.2404734 1.1123285,-0.2417696 0.2438009,-0.00115 0.2672579,0.00583 0.60974,0.180634 0.3311454,0.1690081 0.4914201,0.2398037 0.6181042,0.2730334 0.1260221,0.033053 0.1654548,0.034577 0.2240494,0.00865 z"
       id="path3929-0-6-9-4-0-6" />
    <path
       style="fill:#ffffff;fill-opacity:0;stroke-width:0.0140364"
       d="m 4.2936389,6.3563364 v -0.063209 l 0.083857,-0.00922 c 0.1219424,-0.013544 0.4754935,-0.011287 0.4754935,0.00282 0,0.00659 -0.044507,0.020392 -0.098909,0.030494 -0.084636,0.015802 -0.3305248,0.069887 -0.4297457,0.094663 -0.028262,0.00715 -0.030696,0.00263 -0.030696,-0.055534 z"
       id="path3931-2-6-9-2-0-0" />
    <path
       style="fill:#ffffff;fill-opacity:0;stroke-width:0.0140364"
       d="m 4.2936389,6.3563364 v -0.063209 l 0.083857,-0.00922 c 0.1219424,-0.013544 0.4754935,-0.011287 0.4754935,0.00282 0,0.00659 -0.044507,0.020392 -0.098909,0.030494 -0.084636,0.015802 -0.3305248,0.069887 -0.4297457,0.094663 -0.028262,0.00715 -0.030696,0.00263 -0.030696,-0.055534 z"
       id="path3933-2-1-0-2-4-5" />
    <g
       id="Layer_3-6-7-7-7-2"
       transform="matrix(0.01957657,-0.00773606,0.01033406,0.01726509,-7.4108568,5.3708354)"
       style="fill:#ffffff">
      <path
         d="m 559.61692,25.459277 c 25.28982,-6.502812 40.701,0.372068 34.66059,35.446782 -23.45807,12.49841 -34.17333,12.17378 -49.39713,12.764477 -13.91991,0.540105 -20.78583,-0.658396 -32.5043,-1.568524 4.1942,-16.241972 22.75242,-39.008734 47.24084,-46.642735 z"
         id="path4384-9-9-0-4-1"
         sodipodi:nodetypes="ccscc"
         style="fill:#ffffff;stroke:#000000;stroke-width:3.42407;stroke-miterlimit:4;stroke-dasharray:none;stroke-opacity:1" />
    </g>
    <path
       stroke="#333333"
       stroke-width="0.0035367"
       d="M 4.6511288,1.2802851 C 4.6287883,1.3074869 4.524585,1.4013599 4.4602028,1.4389465 L 4.196493,1.6070892 3.2073417,2.2377767 2.8103498,2.4908975 c -0.031232,0.019941 -0.079408,0.052241 -0.020259,-0.00145 L 3.4126999,1.5793357 C 3.4718528,1.5256271 3.5451085,1.4659362 3.5763483,1.4459953 L 4.4741559,0.87278082 5.0590703,0.49933392 c 0.050185,-0.0323568 0.050185,-0.0323568 0.022315,0.004139 z"
       id="path4387-7-2-4-1-4"
       sodipodi:nodetypes="cccccccscccc"
       style="fill:#ffffff;stroke-width:0.07;stroke-miterlimit:4;stroke-dasharray:none;stroke:#000000;stroke-opacity:1" />
    <path
       style="fill:#ffffff;fill-rule:evenodd;stroke:#000000;stroke-width:0.0263919;stroke-linecap:round;stroke-linejoin:miter;stroke-miterlimit:4;stroke-dasharray:none;stroke-opacity:1"
       d="m 2.6421736,2.9087354 c -0.03693,0.043287 0.010121,0.079538 -0.094394,0.2186118"
       id="path1329-1-5-8-8-7-0-7"
       sodipodi:nodetypes="cc"
       inkscape:transform-center-x="0.2613642"
       inkscape:transform-center-y="0.68779422" />
    <ellipse
       cy="1.0012584"
       cx="3.6657815"
       id="circle4391-0-9-0-7-2-5"
       style="fill:#ffffff;stroke-width:0.0113894"
       rx="0.065831438"
       ry="0.061329845"
       inkscape:transform-center-x="0.087622914"
       inkscape:transform-center-y="-0.8789511"
       transform="matrix(0.87787164,0.47889601,-0.57335945,0.81930394,0,0)" />
    <ellipse
       cy="1.0731543"
       cx="3.667078"
       id="circle4393-4-6-3-1-7-8"
       style="fill:#ffffff;stroke-width:0.0113894;stroke:none"
       rx="0.095519923"
       ry="0.0889882"
       inkscape:transform-center-x="0.22965269"
       inkscape:transform-center-y="-0.66803503"
       transform="matrix(0.87787164,0.47889601,-0.57335945,0.81930394,0,0)" />
    <ellipse
       cy="1.1515338"
       cx="3.667078"
       id="circle4395-8-2-0-0-9-4"
       style="fill:#ffffff;stroke-width:0.0113894"
       rx="0.095519923"
       ry="0.0889882"
       inkscape:transform-center-x="0.38888875"
       inkscape:transform-center-y="-0.44049411"
       transform="matrix(0.87787164,0.47889601,-0.57335945,0.81930394,0,0)" />
    <path
       d="m 2.5459374,3.1066633 c -0.0013,-0.013168 -0.0051,-0.025434 -0.00182,-0.034276 0.025024,-0.068853 0.1011786,-0.2783421 0.042665,-0.3330986 -0.00793,-0.00734 -0.00721,-0.019884 0.0015,-0.027879 0.00877,-0.00809 0.022276,-0.00846 0.030186,-0.00109 0.066468,0.062174 0.020109,0.222711 -0.033986,0.3715224 -0.00385,0.010534 -0.014573,0.020279 -0.026081,0.02914 -0.00156,0.00121 -0.010611,0.00903 -0.012141,0.00827 l -3.473e-4,-0.012604 z"
       id="path4397-1-5-1-1-0-9"
       style="fill:#ffffff;stroke-width:0.0113541"
       inkscape:transform-center-x="0.25397247"
       inkscape:transform-center-y="0.31279702" />
    <path
       d="m 2.4845164,3.1075043 c -0.0013,-0.013168 -0.0051,-0.025434 -0.00182,-0.034257 0.025024,-0.068853 0.1011787,-0.278344 0.042665,-0.3330986 -0.00791,-0.00734 -0.00721,-0.019884 0.0015,-0.027879 0.00877,-0.00809 0.022275,-0.00846 0.030186,-0.00109 0.066468,0.062174 0.020109,0.2227091 -0.033986,0.3715205 -0.00385,0.010534 -0.014573,0.020298 -0.026075,0.02914 -0.00156,0.00121 -0.010611,0.00903 -0.012141,0.00827 L 2.484335,3.1075062 Z"
       id="path4399-9-4-8-0-1-0"
       style="fill:#ffffff;stroke-width:0.0113541"
       inkscape:transform-center-x="0.47160739"
       inkscape:transform-center-y="0.31579704" />
    <path
       d="m 2.3684836,3.0610063 c 0.00934,-0.010347 0.020097,-0.018624 0.022974,-0.027466 0.022295,-0.069605 0.090177,-0.2813579 0.1729064,-0.2974309 0.01118,-0.00226 0.018398,-0.012792 0.016182,-0.023891 -0.00227,-0.011099 -0.0132,-0.018059 -0.024364,-0.015991 -0.09397,0.018248 -0.1559007,0.1745012 -0.204132,0.3249511 -0.0034,0.010723 -5.717e-4,0.024099 0.0034,0.037211 5.717e-4,0.00182 0.00314,0.012792 0.0049,0.012981 l 0.00807,-0.010347 z"
       id="path4401-2-8-2-9-1-7"
       style="fill:#ffffff;stroke-width:0.0113541"
       inkscape:transform-center-x="0.71934415"
       inkscape:transform-center-y="0.21138281" />
    <path
       d="m 2.3059599,3.0206768 c 0.00934,-0.010347 0.020089,-0.018624 0.022974,-0.027466 0.022296,-0.069605 0.090177,-0.2813579 0.1729063,-0.2974309 0.01118,-0.00226 0.018399,-0.012792 0.016162,-0.023891 -0.00227,-0.011099 -0.0132,-0.018059 -0.024371,-0.015991 -0.093968,0.018248 -0.1559006,0.1745012 -0.2041313,0.3249492 -0.0034,0.010723 -5.716e-4,0.024118 0.0034,0.037211 5.718e-4,0.00182 0.00314,0.012792 0.0049,0.012981 l 0.00807,-0.010347 z"
       id="path4403-3-2-5-0-0-7"
       style="fill:#ffffff;stroke-width:0.0113541"
       inkscape:transform-center-x="0.94090212"
       inkscape:transform-center-y="0.068479145" />
    <path
       d="M 2.44516,3.0802943 C 2.45685,3.0676903 2.470596,3.0578133 2.473793,3.0466583 2.498739,2.9595583 2.5746558,2.6945425 2.6834028,2.678475 2.6980938,2.676215 2.7069718,2.663049 2.7032648,2.649034 2.6994748,2.634925 2.6845338,2.625331 2.6698398,2.627456 2.5463341,2.645704 2.4745692,2.8406313 2.4206437,3.0289123 c -0.00385,0.013357 8.485e-4,0.030532 0.00698,0.04735 8.483e-4,0.00226 0.00496,0.016554 0.00737,0.016743 l 0.01014,-0.012604 z"
       id="path4405-7-0-9-8-3-7"
       style="fill:#ffffff;stroke-width:0.0113204"
       inkscape:transform-center-x="0.37933507"
       inkscape:transform-center-y="0.12798587" />
    <path
       sodipodi:nodetypes="cccccc"
       id="path1289-6-0-5"
       d="M 4.003562,4.0565399 C 4.6253252,4.3901014 4.698474,3.7459817 4.698474,3.7459817 L 4.5643679,3.619458 4.8447713,3.607956 4.698474,3.7574837 c 0,0 0.134106,0.5981117 0.6705294,0.2990562"
       style="fill:none;fill-rule:evenodd;stroke:#000000;stroke-width:0.07;stroke-linecap:round;stroke-linejoin:round;stroke-opacity:1;fill-opacity:1;stroke-miterlimit:4;stroke-dasharray:none" />
  </g>
  <g
     inkscape:label="Layer 0"
     id="layer5"
     inkscape:groupmode="layer">
    <path
       sodipodi:nodetypes="ccccsccccccccsccsccccccccccssssssssss"
       style="stroke-width:0.00347911"
       id="path4"
       d="m 4.6135914,2.8035842 c 0.06034,-0.053352 0.1280363,-0.057657 0.2045859,-0.00288 0.032745,0.022599 0.066843,0.030843 0.094068,-0.00149 0.1225644,-0.1455088 0.2496709,-0.2289991 0.4185767,-0.2153773 0.1166305,0.00942 0.217687,0.047697 0.3045262,0.1194895 0.038316,0.031676 0.077905,0.056507 0.1172338,0.077042 0.024749,0.012926 0.043527,0.039215 0.050461,0.071705 0.00561,0.026557 0.00822,0.055158 0.00842,0.085217 2.234e-4,0.024573 -0.012255,0.046805 -0.031082,0.05354 -1.493e-4,5.56e-5 -2.976e-4,1.042e-4 -4.469e-4,1.568e-4 -0.028367,0.00526 -0.047775,0.066963 -0.063487,0.1622713 C 5.6908725,3.30826 5.6350913,3.4349815 5.5353694,3.5095216 5.4173371,3.5977538 5.2889551,3.6133299 5.1655871,3.5471398 4.9868687,3.451249 4.8898673,3.247677 4.8610608,3.1569517 4.8256001,3.0452656 4.8189368,2.9671075 4.7176158,2.965177 4.6434078,2.9637882 4.6090363,2.9775974 4.5918069,3.0610678 4.549683,3.2651548 4.4763928,3.418717 4.3225551,3.5073133 4.1373548,3.6139708 3.9854318,3.5805459 3.8334317,3.442404 3.7488431,3.3655306 3.6937151,3.2312874 3.6664708,3.0396764 c -0.00721,-0.05114 -0.028467,-0.084234 -0.058647,-0.1051991 -0.012345,-0.00853 -0.01981,-0.025208 -0.019799,-0.042916 8.21e-5,-0.081794 0.00721,-0.1490861 0.047294,-0.1491327 0.034308,-0.00645 0.069829,-0.023601 0.1064072,-0.050158 0.1888155,-0.159072 0.3797803,-0.180143 0.5849494,-0.098837 0.063547,0.025178 0.1401164,0.095315 0.2210457,0.1962012 0.021232,0.026279 0.043156,0.031676 0.065841,0.014018 z M 4.1175603,2.6254551 c -0.2047934,0 -0.3708104,0.1944254 -0.3708104,0.4342596 0,0.2398352 0.166017,0.4342596 0.3708104,0.4342596 0.2047933,0 0.3708114,-0.1944244 0.3708114,-0.4342596 0,-0.2398342 -0.1660181,-0.4342596 -0.3708114,-0.4342596 z m 1.1969417,0.017698 c -0.2047933,0 -0.3708104,0.1944254 -0.3708104,0.4342596 0,0.2398352 0.1660171,0.4342596 0.3708104,0.4342596 0.2047944,0 0.3471879,-0.2032832 0.3471879,-0.4431184 0,-0.2398342 -0.1423935,-0.4254008 -0.3471879,-0.4254008 z" />
  </g>
</svg>
