<svg xmlns="http://www.w3.org/2000/svg" viewBox="0 0 242.64 53.62"><defs><style>.cls-1{fill:#56c2cc;}.cls-2{fill:#434b58;}</style></defs><title>Asset 1_amta</title><g id="Layer_2" data-name="Layer 2"><g id="Camada_1" data-name="Camada 1"><path class="cls-1" d="M114.07,53.19l.09-26.3-8,26.27-11.89,0L86.52,26.8l-.09,26.3L71.36,53l.18-53L90.85.06l9.7,32.28L110.46.13,129.7.19l-.18,53Z"/><path class="cls-1" d="M150.76,14.75,136,14.7,136,.22l46.43.16,0,14.49-14.78,0-.13,38.56-16.86-.06Z"/><path class="cls-2" d="M202.42.8l20,.07,20.24,52.75-21-.07L212.6,27.18l-9.24,26.31-21.53-.07Z"/><path class="cls-2" d="M20.43.8,40.24.86,60.32,53.2l-20.81-.07L30.53,27l-9.16,26.1L0,53Z"/></g></g></svg>